<svg width="87" height="56" viewBox="0 0 87 56" fill="none" xmlns="http://www.w3.org/2000/svg">
<path d="M58.7492 1C57.3326 0.625 55.8936 0.275 54.4095 0.025C54.3645 0.025 54.2971 0 54.2296 0C52.1609 1.7 50.2272 3.6 48.4508 5.675C50.4071 5.35 52.3858 5.15 54.3645 5.075C61.0653 4.8 67.766 5.95 74.0845 8.5C69.4299 5 64.2358 2.45 58.7492 1Z" fill="#00498F"/>
<path d="M55.6238 18.175C63.5837 14 71.9034 12.25 79.7509 12.625C72.6004 9.15 64.8429 7.55 57.0403 7.9C53.1054 8.05 49.1928 8.7 45.3928 9.8C43.5489 12.525 42.0424 15.5 40.8731 18.625C42.6945 20.6 44.6283 22.45 46.6969 24.1C49.4852 21.8 52.4758 19.825 55.6238 18.175Z" fill="#FF9400"/>
<path d="M45.3928 9.8C42.3797 10.675 39.4341 11.875 36.6234 13.35C39.524 17.425 42.8969 21.05 46.6969 24.1C44.6283 22.425 42.6945 20.6 40.8731 18.625C42.0424 15.5 43.5714 12.525 45.3928 9.8Z" fill="#FFC27D"/>
<path d="M46.6969 24.125C44.6282 22.45 42.6945 20.625 40.8731 18.65C39.1867 23.15 38.3098 27.95 38.3098 32.825C40.7832 29.575 43.5939 26.65 46.6969 24.125Z" fill="#FFC27D"/>
<path d="M86.2043 51.025H85.912C81.8871 51.025 78.9639 48.15 78.9639 44.2V44.1C78.9639 40.325 81.887 37.35 85.6197 37.35C85.822 37.35 86.0244 37.35 86.2043 37.375V32.85C86.0244 32.825 85.8445 32.825 85.6646 32.825C78.3343 32.825 72.8253 37.7 72.8253 44.2V44.275C72.8253 50.6 78.4243 55.55 85.5747 55.55C85.7996 55.55 86.0019 55.55 86.2043 55.525V51.025Z" fill="#00498F"/>
<path d="M12.1589 41.5C7.84166 40.475 7.23454 39.975 7.23454 38.475V38.4C7.23454 37.275 8.33634 36.375 10.45 36.375C11.6417 36.425 12.7885 36.65 13.9128 37.1V32.275C12.7885 32.05 11.6642 31.925 10.5175 31.9C5.4132 31.9 1.77052 34.675 1.77052 38.875V38.925C1.77052 43.525 5.00846 44.8 10.0453 45.975C14.2276 46.975 14.6098 47.625 14.6098 48.925V48.975C14.6098 50.325 13.2607 51.15 10.9897 51.15C8.13397 51.15 6.24517 50.05 3.99661 48.35L0.758667 51.975C3.68181 54.425 7.25703 55.725 10.8997 55.675C16.2963 55.675 20.0964 53.1 20.0964 48.5V48.425C20.0964 44.4 17.2407 42.725 12.1589 41.5Z" fill="#00498F"/>
<path d="M24.7509 43.55C25.1781 41.1 26.6622 39.525 28.9108 39.525C31.2043 39.525 32.6434 41.15 32.9807 43.55H24.7509ZM28.9333 35.2C23.3118 35.2 19.3993 39.65 19.3993 45.05V45.125C19.3993 50.925 23.6716 54.925 29.4729 54.925C29.6528 54.925 30.17 54.9 30.3499 54.9V50.575C30.2149 50.575 29.6978 50.6 29.5404 50.6C27.0894 50.6 25.3805 49.325 24.8409 46.9H38.1299C38.1524 46.4 38.1974 46.075 38.1974 45.55V45.5C38.1974 40.125 35.3642 35.225 28.9333 35.2Z" fill="#00498F"/>
<path d="M55.5338 44.55C55.5338 39.425 52.7006 35.425 46.7419 35.425C40.7832 35.425 37.95 39.425 37.95 44.55V54.575H43.4815V44.175C43.5714 42.275 44.246 40.025 46.7419 40.025C49.2378 40.025 49.9573 42.275 50.0473 44.175V54.575H55.5338V44.55Z" fill="#00498F"/>
<path d="M64.5056 35.325C64.2583 35.325 63.4263 35.325 63.2014 35.35V39.925C64.2583 39.925 65.7198 40.15 66.3719 40.525C67.3388 41.075 67.8335 42.025 67.8335 43.3C66.5293 43.125 65.0452 43.025 63.786 42.975C58.5694 42.825 55.9835 44.75 55.4663 47.825C55.4663 47.875 55.4439 47.95 55.4439 48C55.4439 48.025 55.4439 48.05 55.4439 48.05C55.3989 48.35 55.3764 48.675 55.3764 48.975V49.05C55.3764 52.8 58.367 54.85 61.9872 54.85C64.663 54.85 66.4843 53.9 67.811 52.45V54.625H73.0951V43.5C73.1176 38.35 70.4868 35.325 64.5056 35.325ZM67.8784 47.85C67.4062 50.625 64.8429 51.05 64.2582 51.075C60.0984 51.325 59.9635 48.15 61.3576 47.2C63.2464 45.9 67.9009 46.625 67.9009 46.625C67.9234 47.025 67.9234 47.425 67.8784 47.85Z" fill="#00498F"/>
</svg>
